# xmcd
#
# Track frame offsets: 
#        150
#        38720
#        56101
#        88878
#        119575
#        149845
#        160709
#        185334
#        216102
#        241155
#        267251
#
# Disc length: 4059 seconds
#
# Revision: 2
# Processed by: cddbd v1.5.1PL0 Copyright (c) Steve Scherf et al.
# Submitted via: ExactAudioCopy v0.95a5
#
DISCID=a30fd90b
DTITLE=YANNI - Tribute
DYEAR=1997
DGENRE=Blues
TTITLE0=Deliverance
TTITLE1=Adagio in minor
TTITLE2=Renegade
TTITLE3=Dance with a stranger
TTITLE4=Tribute
TTITLE5=Prelude
TTITLE6=Love is all
TTITLE7=Southers exposure
TTITLE8=Waltz in 7-8
TTITLE9=Nightingale
TTITLE10=Niki Nana (we're one)
EXTD=The first new music from YANNI live at the Acropolis
EXTT0=
EXTT1=
EXTT2=
EXTT3=
EXTT4=
EXTT5=
EXTT6=
EXTT7=
EXTT8=
EXTT9=
EXTT10=
PLAYORDER=
